<?xml version="1.0" encoding="UTF-8" standalone="no"?>
<svg width="800" height="600" xmlns="http://www.w3.org/2000/svg">
  <style>
    .service { fill: #f8f9fa; stroke: #4263eb; stroke-width: 2; }
    .service-title { font-family: 'Inter', sans-serif; font-size: 14px; font-weight: bold; fill: #212529; }
    .service-desc { font-family: 'Inter', sans-serif; font-size: 12px; fill: #495057; }
    .arrow { stroke: #4263eb; stroke-width: 2; fill: none; marker-end: url(#arrowhead); }
    .dashed-arrow { stroke: #4263eb; stroke-width: 2; fill: none; stroke-dasharray: 5,5; marker-end: url(#arrowhead); }
    .gateway { fill: #e7f5ff; stroke: #4263eb; stroke-width: 2; }
    .database { fill: #f1f3f5; stroke: #495057; stroke-width: 2; }
    .db-title { font-family: 'Inter', sans-serif; font-size: 12px; font-weight: bold; fill: #495057; }
    .client { fill: #e7f5ff; stroke: #4263eb; stroke-width: 2; }
    .queue { fill: #fff9db; stroke: #fab005; stroke-width: 2; }
    .queue-title { font-family: 'Inter', sans-serif; font-size: 12px; font-weight: bold; fill: #fab005; }
  </style>
  
  <defs>
    <marker id="arrowhead" markerWidth="10" markerHeight="7" refX="9" refY="3.5" orient="auto">
      <polygon points="0 0, 10 3.5, 0 7" fill="#4263eb" />
    </marker>
  </defs>
  
  <!-- API Gateway -->
  <rect x="350" y="50" width="100" height="60" rx="5" class="gateway" />
  <text x="400" y="75" text-anchor="middle" class="service-title">API Gateway</text>
  <text x="400" y="95" text-anchor="middle" class="service-desc">Port: 5100</text>
  
  <!-- Client -->
  <rect x="350" y="10" width="100" height="30" rx="5" class="client" />
  <text x="400" y="30" text-anchor="middle" class="service-title">Client</text>
  
  <!-- Auth Service -->
  <rect x="100" y="150" width="120" height="80" rx="5" class="service" />
  <text x="160" y="180" text-anchor="middle" class="service-title">Auth Service</text>
  <text x="160" y="200" text-anchor="middle" class="service-desc">Port: 5101</text>
  
  <!-- Patient Service -->
  <rect x="250" y="150" width="120" height="80" rx="5" class="service" />
  <text x="310" y="180" text-anchor="middle" class="service-title">Patient Service</text>
  <text x="310" y="200" text-anchor="middle" class="service-desc">Port: 5102</text>
  
  <!-- Appointment Service -->
  <rect x="400" y="150" width="120" height="80" rx="5" class="service" />
  <text x="460" y="180" text-anchor="middle" class="service-title">Appointment Service</text>
  <text x="460" y="200" text-anchor="middle" class="service-desc">Port: 5103</text>
  
  <!-- Inventory Service -->
  <rect x="550" y="150" width="120" height="80" rx="5" class="service" />
  <text x="610" y="180" text-anchor="middle" class="service-title">Inventory Service</text>
  <text x="610" y="200" text-anchor="middle" class="service-desc">Port: 5104</text>
  
  <!-- Reporting Service -->
  <rect x="250" y="300" width="120" height="80" rx="5" class="service" />
  <text x="310" y="330" text-anchor="middle" class="service-title">Reporting Service</text>
  <text x="310" y="350" text-anchor="middle" class="service-desc">Port: 5105</text>
  
  <!-- Notification Service -->
  <rect x="400" y="300" width="120" height="80" rx="5" class="service" />
  <text x="460" y="330" text-anchor="middle" class="service-title">Notification Service</text>
  <text x="460" y="350" text-anchor="middle" class="service-desc">Port: 5106</text>
  
  <!-- Message Queue -->
  <rect x="350" y="420" width="120" height="40" rx="5" class="queue" />
  <text x="410" y="445" text-anchor="middle" class="queue-title">Message Queue</text>
  
  <!-- Databases -->
  <rect x="100" y="250" width="80" height="40" rx="5" class="database" />
  <text x="140" y="275" text-anchor="middle" class="db-title">Auth DB</text>
  
  <rect x="250" y="400" width="80" height="40" rx="5" class="database" />
  <text x="290" y="425" text-anchor="middle" class="db-title">Patient DB</text>
  
  <rect x="400" y="400" width="80" height="40" rx="5" class="database" />
  <text x="440" y="425" text-anchor="middle" class="db-title">Appointment DB</text>
  
  <rect x="550" y="250" width="80" height="40" rx="5" class="database" />
  <text x="590" y="275" text-anchor="middle" class="db-title">Inventory DB</text>
  
  <rect x="250" y="500" width="80" height="40" rx="5" class="database" />
  <text x="290" y="525" text-anchor="middle" class="db-title">Reporting DB</text>
  
  <rect x="400" y="500" width="80" height="40" rx="5" class="database" />
  <text x="440" y="525" text-anchor="middle" class="db-title">Notification DB</text>
  
  <!-- Connections -->
  <!-- Client to Gateway -->
  <line x1="400" y1="40" x2="400" y2="50" class="arrow" />
  
  <!-- Gateway to Services -->
  <line x1="380" y1="110" x2="160" y2="150" class="arrow" />
  <line x1="390" y1="110" x2="310" y2="150" class="arrow" />
  <line x1="400" y1="110" x2="460" y2="150" class="arrow" />
  <line x1="410" y1="110" x2="610" y2="150" class="arrow" />
  <line x1="390" y1="110" x2="310" y2="300" class="dashed-arrow" />
  <line x1="410" y1="110" x2="460" y2="300" class="dashed-arrow" />
  
  <!-- Services to Databases -->
  <line x1="140" y1="230" x2="140" y2="250" class="arrow" />
  <line x1="310" y1="230" x2="290" y2="400" class="arrow" />
  <line x1="460" y1="230" x2="440" y2="400" class="arrow" />
  <line x1="590" y1="230" x2="590" y2="250" class="arrow" />
  <line x1="310" y1="380" x2="290" y2="500" class="arrow" />
  <line x1="460" y1="380" x2="440" y2="500" class="arrow" />
  
  <!-- Services to Message Queue -->
  <line x1="310" y1="380" x2="380" y2="420" class="dashed-arrow" />
  <line x1="460" y1="380" x2="440" y2="420" class="dashed-arrow" />
  <line x1="160" y1="230" x2="350" y2="420" class="dashed-arrow" />
  <line x1="590" y1="230" x2="470" y2="420" class="dashed-arrow" />
  
  <!-- Service to Service Communication -->
  <path d="M 220 190 C 240 190, 240 190, 250 190" class="arrow" />
  <path d="M 370 190 C 390 190, 390 190, 400 190" class="arrow" />
  <path d="M 520 190 C 540 190, 540 190, 550 190" class="arrow" />
  <path d="M 310 230 C 310 260, 310 260, 310 300" class="arrow" />
  <path d="M 460 230 C 460 260, 460 260, 460 300" class="arrow" />
  
  <!-- Title -->
  <text x="400" y="580" text-anchor="middle" font-family="'Inter', sans-serif" font-size="16" font-weight="bold" fill="#212529">EVMR Microservices Architecture</text>
</svg>
