<?xml version="1.0" encoding="UTF-8" standalone="no"?>
<svg width="800" height="500" xmlns="http://www.w3.org/2000/svg">
  <style>
    .service { fill: #f8f9fa; stroke: #4263eb; stroke-width: 2; }
    .service-title { font-family: 'Inter', sans-serif; font-size: 14px; font-weight: bold; fill: #212529; }
    .service-desc { font-family: 'Inter', sans-serif; font-size: 12px; fill: #495057; }
    .sync-arrow { stroke: #4263eb; stroke-width: 2; fill: none; marker-end: url(#arrowhead); }
    .async-arrow { stroke: #fab005; stroke-width: 2; fill: none; stroke-dasharray: 5,5; marker-end: url(#arrowhead-yellow); }
    .queue { fill: #fff9db; stroke: #fab005; stroke-width: 2; }
    .queue-title { font-family: 'Inter', sans-serif; font-size: 12px; font-weight: bold; fill: #fab005; }
    .legend-box { fill: white; stroke: #dee2e6; stroke-width: 1; }
    .legend-title { font-family: 'Inter', sans-serif; font-size: 14px; font-weight: bold; fill: #212529; }
    .legend-item { font-family: 'Inter', sans-serif; font-size: 12px; fill: #495057; }
  </style>
  
  <defs>
    <marker id="arrowhead" markerWidth="10" markerHeight="7" refX="9" refY="3.5" orient="auto">
      <polygon points="0 0, 10 3.5, 0 7" fill="#4263eb" />
    </marker>
    <marker id="arrowhead-yellow" markerWidth="10" markerHeight="7" refX="9" refY="3.5" orient="auto">
      <polygon points="0 0, 10 3.5, 0 7" fill="#fab005" />
    </marker>
  </defs>
  
  <!-- Services -->
  <rect x="100" y="100" width="120" height="60" rx="5" class="service" />
  <text x="160" y="130" text-anchor="middle" class="service-title">Auth Service</text>
  <text x="160" y="150" text-anchor="middle" class="service-desc">Port: 5101</text>
  
  <rect x="350" y="100" width="120" height="60" rx="5" class="service" />
  <text x="410" y="130" text-anchor="middle" class="service-title">Patient Service</text>
  <text x="410" y="150" text-anchor="middle" class="service-desc">Port: 5102</text>
  
  <rect x="600" y="100" width="120" height="60" rx="5" class="service" />
  <text x="660" y="130" text-anchor="middle" class="service-title">Appointment Service</text>
  <text x="660" y="150" text-anchor="middle" class="service-desc">Port: 5103</text>
  
  <rect x="100" y="300" width="120" height="60" rx="5" class="service" />
  <text x="160" y="330" text-anchor="middle" class="service-title">Inventory Service</text>
  <text x="160" y="350" text-anchor="middle" class="service-desc">Port: 5104</text>
  
  <rect x="350" y="300" width="120" height="60" rx="5" class="service" />
  <text x="410" y="330" text-anchor="middle" class="service-title">Reporting Service</text>
  <text x="410" y="350" text-anchor="middle" class="service-desc">Port: 5105</text>
  
  <rect x="600" y="300" width="120" height="60" rx="5" class="service" />
  <text x="660" y="330" text-anchor="middle" class="service-title">Notification Service</text>
  <text x="660" y="350" text-anchor="middle" class="service-desc">Port: 5106</text>
  
  <!-- Message Queue -->
  <rect x="350" y="200" width="120" height="40" rx="5" class="queue" />
  <text x="410" y="225" text-anchor="middle" class="queue-title">Message Queue</text>
  
  <!-- Synchronous Communication -->
  <line x1="220" y1="130" x2="350" y2="130" class="sync-arrow" />
  <line x1="470" y1="130" x2="600" y2="130" class="sync-arrow" />
  <line x1="220" y1="330" x2="350" y2="330" class="sync-arrow" />
  <line x1="470" y1="330" x2="600" y2="330" class="sync-arrow" />
  
  <!-- Asynchronous Communication -->
  <path d="M 160 160 C 160 180, 350 180, 350 200" class="async-arrow" />
  <path d="M 410 160 C 410 180, 410 180, 410 200" class="async-arrow" />
  <path d="M 660 160 C 660 180, 470 180, 470 200" class="async-arrow" />
  <path d="M 160 300 C 160 280, 350 240, 350 240" class="async-arrow" />
  <path d="M 410 300 C 410 280, 410 280, 410 240" class="async-arrow" />
  <path d="M 660 300 C 660 280, 470 240, 470 240" class="async-arrow" />
  
  <!-- Legend -->
  <rect x="550" y="400" width="200" height="80" rx="5" class="legend-box" />
  <text x="650" y="420" text-anchor="middle" class="legend-title">Communication Types</text>
  
  <line x1="570" y1="440" x2="600" y2="440" class="sync-arrow" />
  <text x="680" y="445" class="legend-item">Synchronous (REST API)</text>
  
  <line x1="570" y1="470" x2="600" y2="470" class="async-arrow" />
  <text x="680" y="475" class="legend-item">Asynchronous (Events)</text>
  
  <!-- Title -->
  <text x="400" y="50" text-anchor="middle" font-family="'Inter', sans-serif" font-size="18" font-weight="bold" fill="#212529">EVMR Service Communication Patterns</text>
</svg>
